<?xml version="1.0" encoding="UTF-8"?>
<svg version="1.1" xmlns="http://www.w3.org/2000/svg" width="500" height="500">
<path d="M0 0 C0 0.66 0 1.32 0 2 C0.58265625 2.18433594 1.1653125 2.36867188 1.765625 2.55859375 C5.01588579 4.65535289 6.16585524 7.66162739 7.75 11.0625 C8.08854004 11.76479736 8.42708008 12.46709473 8.77587891 13.19067383 C9.86298223 15.45476304 10.9318354 17.72692278 12 20 C12.74145342 21.55503773 13.48363834 23.10972688 14.2265625 24.6640625 C22 41.00254763 22 41.00254763 22 45 C22.66 45 23.32 45 24 45 C24.29132813 45.78761719 24.58265625 46.57523438 24.8828125 47.38671875 C28.47950991 56.94398073 32.5333594 66.21738555 37.1875 75.3125 C38.72052144 78.32868853 39.89157933 81.39877814 41.04296875 84.58203125 C42.53255558 88.34551797 44.29100017 91.97929438 46.01513672 95.63989258 C48.69131063 101.32728675 51.33145057 107.03010853 53.9375 112.75 C54.3392041 113.61979492 54.7409082 114.48958984 55.15478516 115.38574219 C55.52522949 116.20204102 55.89567383 117.01833984 56.27734375 117.859375 C56.60984131 118.58608398 56.94233887 119.31279297 57.28491211 120.06152344 C58 122 58 122 58 125 C24.03997597 131.51054458 24.03997597 131.51054458 10 131 C6.08943071 123.38171517 2.38989544 115.77174265 -0.8359375 107.83203125 C-2.29522654 104.28174751 -3.88244896 100.8002377 -5.484375 97.3125 C-7.91144744 92.00797054 -10.29699346 86.68471911 -12.68237305 81.36132812 C-15.12951221 75.90649441 -17.62598558 70.47943732 -20.22265625 65.09375 C-21 63 -21 63 -21 59 C-21.99 58.67 -22.98 58.34 -24 58 C-33.88573636 79.24691622 -43.60896487 100.56506245 -52.76953125 122.13671875 C-54.36643383 125.8526857 -56.03627279 129.532749 -57.7265625 133.20703125 C-58.43284747 134.75609184 -59.13472306 136.30726665 -59.81835938 137.86645508 C-62.80519207 144.67453968 -66.02007732 151.36697845 -69.25 158.0625 C-70.08144531 159.79016602 -70.08144531 159.79016602 -70.9296875 161.55273438 C-72.28526637 164.36906634 -73.64206331 167.18480434 -75 170 C-70.85294368 169.08245954 -67.36253011 167.20779637 -63.625 165.25 C-57.26836481 161.98747649 -50.97074575 159.36242085 -44.18359375 157.10546875 C-40.94297241 156.02872876 -40.94297241 156.02872876 -37.68359375 154.53515625 C-7.59215987 141.99439961 28.81266419 139.69934011 60.96191406 136.36962891 C63.68686787 136.03809724 66.31403674 135.555548 69 135 C70.70627686 134.74618467 72.41480336 134.50714911 74.125 134.28125 C75.55585938 134.08982422 75.55585938 134.08982422 77.015625 133.89453125 C79.00520833 133.63151042 80.99479167 133.36848958 82.984375 133.10546875 C84.41523438 132.91404297 84.41523438 132.91404297 85.875 132.71875 C87.17050781 132.54762695 87.17050781 132.54762695 88.4921875 132.37304688 C91.043244 132.02514752 91.043244 132.02514752 93.6953125 131.39257812 C96 131 96 131 98 132 C97.47470631 136.1088041 96.33192009 138.25519841 93.5625 141.3125 C92.94503906 142.00988281 92.32757813 142.70726562 91.69140625 143.42578125 C90 145 90 145 88 145 C88 145.66 88 146.32 88 147 C85.48046875 148.7265625 85.48046875 148.7265625 82.1875 150.625 C81.10855469 151.25664062 80.02960938 151.88828125 78.91796875 152.5390625 C76 154 76 154 73 154 C73 154.66 73 155.32 73 156 C72.07058594 156.32613281 71.14117187 156.65226563 70.18359375 156.98828125 C62.76553243 159.57949174 62.76553243 159.57949174 55.5 162.5625 C49.82738037 164.89232592 43.90714824 166.38034369 38 168 C35.06202298 168.81077904 32.12468277 169.62384879 29.1875 170.4375 C28.43654053 170.64528076 27.68558105 170.85306152 26.91186523 171.06713867 C21.51235436 172.56620356 16.12679583 174.10893167 10.75 175.6875 C10.0593042 175.88980225 9.3686084 176.09210449 8.65698242 176.30053711 C5.65544441 177.18686017 2.68345201 178.10992299 -0.2734375 179.13671875 C-3.30887535 180.09779578 -5.83527259 180.15070131 -9 180 C-9 180.66 -9 181.32 -9 182 C-9.56960449 182.1542041 -10.13920898 182.3084082 -10.72607422 182.46728516 C-18.10169252 184.56181398 -25.07657729 187.37394545 -32.125 190.375 C-33.25292969 190.84421875 -34.38085938 191.3134375 -35.54296875 191.796875 C-41.15814397 194.17429421 -46.40192444 196.60499487 -51.40966797 200.10400391 C-53 201 -53 201 -56 201 C-56 201.66 -56 202.32 -56 203 C-57.6953125 204.0859375 -57.6953125 204.0859375 -60.125 205.375 C-70.48595572 211.40907932 -79.52439782 219.52503699 -86.546875 229.234375 C-87.02640625 229.81703125 -87.5059375 230.3996875 -88 231 C-88.66 231 -89.32 231 -90 231 C-90.27360352 231.74096924 -90.54720703 232.48193848 -90.82910156 233.24536133 C-91.92247268 235.81761034 -93.12081898 237.80668771 -94.734375 240.07421875 C-98.37924637 245.41862766 -101.30860842 251.05904939 -104.25 256.8125 C-104.77851563 257.83537109 -105.30703125 258.85824219 -105.8515625 259.91210938 C-108.51761426 264.94480128 -108.51761426 264.94480128 -110.85058594 270.1315918 C-112.46355057 272.75351583 -114.26736754 273.6161614 -117 275 C-119.65132141 275.36076355 -119.65132141 275.36076355 -122.5246582 275.34057617 C-123.60540115 275.34034958 -124.6861441 275.34012299 -125.79963684 275.33988953 C-126.9550145 275.32440567 -128.11039215 275.30892181 -129.30078125 275.29296875 C-130.49229294 275.28872391 -131.68380463 275.28447906 -132.91142273 275.28010559 C-136.71201296 275.26333093 -140.51207038 275.22567959 -144.3125 275.1875 C-146.89126838 275.17245166 -149.47004508 275.15876351 -152.04882812 275.14648438 C-158.3660668 275.11343127 -164.68299533 275.06324319 -171 275 C-170.38798727 271.73582036 -169.71221674 269.10970136 -168.125 266.1875 C-166.45195732 262.972868 -165.1419057 259.74458301 -163.91015625 256.33203125 C-161.29009918 249.61883783 -158.09960744 243.09735951 -154.8125 236.6875 C-153.28204272 233.6763564 -152.11133351 230.61277886 -150.96484375 227.43359375 C-149.42921066 223.56031677 -147.61121178 219.8187478 -145.82885742 216.0546875 C-143.62607199 211.38659367 -141.53936883 206.67897506 -139.5 201.9375 C-137.3233808 196.88810824 -135.0096676 191.95859259 -132.5 187.0625 C-129.53329365 181.23527812 -126.99957014 175.3107082 -124.5546875 169.24853516 C-122.37525518 163.85737215 -120.00611139 158.58118799 -117.53515625 153.31640625 C-115.7804513 149.52570776 -114.10304672 145.70548824 -112.4375 141.875 C-110.49134298 137.40083978 -108.53162203 132.93626319 -106.5 128.5 C-104.51683741 124.16546549 -102.59307746 119.80656565 -100.6875 115.4375 C-99.77677565 113.35291986 -98.86576221 111.26846638 -97.95458984 109.18408203 C-97.30861175 107.70609738 -96.66311763 106.22790113 -96.01806641 104.74951172 C-92.57406559 96.86957048 -89.09295376 89.03878783 -85.1875 81.375 C-83.13161893 77.33269329 -81.28776217 73.38395987 -79.80078125 69.10546875 C-78.27360532 65.09011351 -76.35462772 61.24085041 -74.53515625 57.3515625 C-73.13747049 54.30012641 -71.83117602 51.23179079 -70.5625 48.125 C-67.91649686 41.69899237 -64.98330775 35.4244881 -62.00634766 29.14794922 C-60.90457184 26.79631807 -59.83233349 24.43237786 -58.76171875 22.06640625 C-57.98709963 20.37754891 -57.21236151 18.68874614 -56.4375 17 C-56.0859082 16.21101318 -55.73431641 15.42202637 -55.37207031 14.60913086 C-51.95117779 7.22154226 -47.81418652 1.13364237 -40.1796875 -2.22265625 C-26.9321272 -6.9471446 -12.50036415 -6.50471438 0 0 Z " fill="#F8F7F7" transform="translate(271,113)"/>
<path d="M0 0 C1.2065625 0.0309375 1.2065625 0.0309375 2.4375 0.0625 C2.71722656 0.75472656 2.99695313 1.44695312 3.28515625 2.16015625 C5.62456749 7.86952322 8.0700846 13.49565184 10.69140625 19.08203125 C10.99438629 19.72872772 11.29736633 20.37542419 11.60952759 21.04171753 C13.69034254 25.48071318 15.77979177 29.91565878 17.8671875 34.3515625 C23.98247027 47.35483185 29.9615869 60.38280412 35.546875 73.625 C37.18352 77.49762479 38.90859561 81.31562899 40.6875 85.125 C42.61906816 89.26869928 44.50541154 93.42528604 46.3125 97.625 C46.72242188 98.57503906 47.13234375 99.52507812 47.5546875 100.50390625 C48.4375 103.0625 48.4375 103.0625 48.4375 107.0625 C41.72981072 107.13878074 35.02223399 107.19119663 28.31420898 107.22729492 C26.03389302 107.24234918 23.75360586 107.26279708 21.47338867 107.28881836 C18.18921791 107.32534894 14.90543115 107.34226039 11.62109375 107.35546875 C10.60728134 107.37095261 9.59346893 107.38643646 8.54893494 107.40238953 C2.72852171 107.40376268 -1.44824196 106.92826651 -6.5625 104.0625 C-8.3828125 101.63671875 -8.3828125 101.63671875 -9.6875 98.75 C-10.17605469 97.6775 -10.66460937 96.605 -11.16796875 95.5 C-13.01361044 90.95051908 -14.62674212 86.33866882 -16.21875 81.6953125 C-17.86515003 77.24428916 -19.84885043 73.02174764 -21.90161133 68.74780273 C-24.30300699 63.71484777 -26.40277125 58.60150683 -28.43115234 53.40869141 C-29.88204287 49.71100992 -31.43564004 46.09449487 -33.125 42.5 C-35.57757908 37.23208094 -37.48308573 31.82305809 -39.3515625 26.32421875 C-40.5031494 23.00377116 -40.5031494 23.00377116 -42.2734375 19.83203125 C-43.5625 17.0625 -43.5625 17.0625 -42.5625 14.0625 C-39.84104607 13.08587321 -37.2264149 12.28537928 -34.4375 11.5625 C-28.9147263 10.08658634 -23.81389228 8.36595161 -18.5625 6.0625 C-15.9553276 5.13131996 -13.32398557 4.28159222 -10.6875 3.4375 C-7.11672841 2.29267247 -3.5370978 0.08627068 0 0 Z " fill="#F6F5F5" transform="translate(346.5625,280.9375)"/>
<path d="M0 0 C-0.75 4.75 -0.75 4.75 -3 7 C-3.33 5.68 -3.66 4.36 -4 3 C-9.28 3 -14.56 3 -20 3 C-20 2.67 -20 2.34 -20 2 C-17.41842632 1.46867611 -14.83538244 0.94965621 -12.25 0.4375 C-11.52039063 0.28603516 -10.79078125 0.13457031 -10.0390625 -0.02148438 C-6.33442927 -0.74557178 -3.60677678 -1.09817231 0 0 Z " fill="#A4A0A1" transform="translate(369,245)"/>
<path d="M0 0 C-2 2 -2 2 -5.5625 2.5 C-7.2640625 2.7475 -7.2640625 2.7475 -9 3 C-9.33 3.66 -9.66 4.32 -10 5 C-11.32 4.01 -12.64 3.02 -14 2 C-4.58997722 -0.29612756 -4.58997722 -0.29612756 0 0 Z " fill="#A9A8A7" transform="translate(270,259)"/>
</svg>
